# xmcd CD database file
#
# Track frame offsets:
#	180
#	23884
#	36618
#	54939
#	72585
#	95791
#	115174
#	139288
#	152877
#	173383
#
# Disc length: 2586 seconds
#
# Revision: 0
# Processed by: cddbd v1.5.2PL0 Copyright (c) Steve Scherf et al.
# Submitted via: CDex 1.70beta2
#
DISCID=8c0a180a
DTITLE=Gashouse Dave and the Hardtails - Leavin' The Plantation
DYEAR=1997
DGENRE=Blues
TTITLE0=Third Nail
TTITLE1=Leavin' The Plantation
TTITLE2=Another Zone
TTITLE3=Deep Blues 9
TTITLE4=Orange Chicken
TTITLE5=Sandscape
TTITLE6=Nobody Here But You
TTITLE7=Save My Place
TTITLE8=Goddess Of Hope
TTITLE9=Buzzerman
EXTD=YEAR: 1997
EXTT0=
EXTT1=
EXTT2=
EXTT3=
EXTT4=
EXTT5=
EXTT6=
EXTT7=
EXTT8=
EXTT9=
PLAYORDER=
